<svg id="Layer_1" data-name="Layer 1" xmlns="http://www.w3.org/2000/svg" viewBox="0 0 203.1 168.54"><defs><style>.cls-1{isolation:isolate;font-size:17.24px;font-family:ArialMT, Arial;letter-spacing:0.41em;}.cls-1,.cls-4{fill:#fff;}.cls-2{letter-spacing:0.39em;}.cls-3{letter-spacing:0.3em;}</style></defs><text class="cls-1" transform="translate(25.36 162.94)">Ken<tspan class="cls-2" x="51.67" y="0"> </tspan><tspan class="cls-3" x="63.15" y="0">T</tspan><tspan x="78.77" y="0">auchi</tspan></text><path class="cls-4" d="M243.8,229c-7.8-9.9-15.6-19-23.3-28.7s-15.5-19.5-23.3-29.4l36.6-36.6h14.5V120.5H209.6v13.8h6.5l-37.4,35.6-2.6,2.2V134.4h10.7V120.6H148.1v13.8h13.4V242.8H176v-.1h.1V189.6l11.4-9.5c6.6,8.4,13,16.7,19.5,24.9s12.6,15.7,19.2,24H209.5v13.8h39V229Z" transform="translate(-96.6 -120.5)"/><polygon class="cls-4" points="27.4 37.5 9.8 55.2 9.8 55.1 0 64.9 0 64.9 0 64.9 9.8 74.7 9.8 74.7 27.4 92.3 37.2 82.6 19.5 64.9 37.2 47.3 27.4 37.5"/><polygon class="cls-4" points="203.1 64.9 193.3 55.1 193.3 55.2 175.7 37.5 165.9 47.3 183.6 64.9 165.9 82.6 175.7 92.3 193.3 74.7 193.3 74.7 203.1 64.9"/></svg>