<svg width="404" height="382" viewBox="0 0 404 382" fill="none" xmlns="http://www.w3.org/2000/svg">
<rect x="93" y="1" width="218" height="218" stroke="white" stroke-width="2"/>
<path d="M177.4 97.104V102H169.192L151.12 75.144V97.104H155.8V102H140.68V97.104H145.216V52.896H140.68V48H155.8V52.896H150.832V72.984L169.192 48H176.968V52.896H172.144L157.168 73.92L172.792 97.104H177.4Z" fill="white"/>
<path d="M240.52 174.104H245.056V129.896H235.984V138.392H230.8V125H265.288V138.392H260.032V129.896H250.96V174.104H255.64V179H240.52V174.104Z" fill="white"/>
<line x1="230.414" y1="86.4142" x2="181.414" y2="135.414" stroke="white" stroke-width="4"/>
<path d="M41.4 307.104V312H33.192L15.12 285.144V307.104H19.8V312H4.68V307.104H9.216V262.896H4.68V258H19.8V262.896H14.832V282.984L33.192 258H40.968V262.896H36.144L21.168 283.92L36.792 307.104H41.4ZM73.7618 276.504V291.624H68.8658V286.512H58.7138V307.104H77.1458V298.68H82.0418V312H48.2738V307.104H52.8098V262.896H48.2738V258H82.0418V271.32H77.1458V262.896H58.7138V281.616H68.8658V276.504H73.7618ZM132.729 262.896H128.193V312H121.137L100.761 269.952V307.104H105.441V312H90.3206V307.104H94.8566V262.896H90.3206V258H101.409L122.289 300.912V262.896H117.609V258H132.729V262.896ZM174.083 307.104H178.619V262.896H169.547V271.392H164.363V258H198.851V271.392H193.595V262.896H184.523V307.104H189.203V312H174.083V307.104ZM223.159 288.24L216.751 262.896L210.343 288.24H223.159ZM238.063 307.104V312H224.023V307.104H227.911L224.311 292.776H209.191L205.591 307.104H209.551V312H195.511V307.104H200.047L212.575 258H221.071L233.383 307.104H238.063ZM255.1 312C250.828 312 248.692 309.624 248.692 304.872V262.896H244.156V258H259.276V262.896H254.596V307.104H274.18V262.896H269.5V258H284.62V262.896H280.084V304.512C280.084 309.504 277.924 312 273.604 312H255.1ZM318.218 298.68H323.114V312H301.01C296.978 312 294.53 310.416 293.666 307.248C293.378 306.336 293.234 305.352 293.234 304.296V265.776C293.234 262.272 294.458 259.92 296.906 258.72C297.818 258.24 298.946 258 300.29 258H323.114V271.32H318.218V262.896H299.138V307.104H318.218V298.68ZM367.782 262.896V307.104H372.318V312H357.486V307.104H361.878V286.512H341.862V307.104H346.254V312H331.422V307.104H335.958V262.896H331.422V258H346.254V262.896H341.862V281.688H361.878V262.896H357.486V258H372.318V262.896H367.782ZM393.216 307.104H397.896V312H382.776V307.104H387.312V262.896H382.776V258H397.896V262.896H393.216V307.104Z" fill="white"/>
<line x1="49" y1="328.5" x2="344" y2="328.5" stroke="white"/>
<path d="M62.504 364.856C62.504 364.131 62.92 363.395 63.752 362.648C64.6053 361.901 65.384 361.528 66.088 361.528C66.792 361.528 67.688 361.816 68.776 362.392C69.8853 362.968 70.664 363.256 71.112 363.256C71.56 363.256 71.9547 363.128 72.296 362.872C72.6587 362.616 72.936 362.371 73.128 362.136C73.3413 361.88 73.5333 361.752 73.704 361.752C73.8747 361.752 73.96 361.827 73.96 361.976C73.96 362.893 73.5973 363.725 72.872 364.472C72.1467 365.219 71.368 365.592 70.536 365.592C69.704 365.592 68.7973 365.208 67.816 364.44C66.8347 363.672 66.12 363.288 65.672 363.288C65.224 363.288 64.7013 363.619 64.104 364.28C63.5067 364.92 63.08 365.24 62.824 365.24C62.6107 365.24 62.504 365.112 62.504 364.856ZM94.6095 369.528C94.9935 369.528 95.5055 369.091 96.1455 368.216C96.7855 367.32 97.4148 366.179 98.0335 364.792C98.6735 363.384 99.0575 362.68 99.1855 362.68C99.3348 362.68 99.4095 362.765 99.4095 362.936C99.4095 363.533 99.1002 364.483 98.4815 365.784C96.7962 369.368 95.3668 371.16 94.1935 371.16C93.2122 371.16 92.5082 370.989 92.0815 370.648C91.8895 370.456 91.7935 368.429 91.7935 364.568L86.5455 364.952C86.1402 366.061 85.7775 367.171 85.4575 368.28C85.1375 369.389 84.9242 370.072 84.8175 370.328C84.5828 370.883 84.0175 371.16 83.1215 371.16C82.5242 371.16 82.2255 370.904 82.2255 370.392C82.2255 369.88 82.6308 369.133 83.4415 368.152C83.5908 367.96 84.0815 366.925 84.9135 365.048C84.6148 365.069 84.3268 365.08 84.0495 365.08C83.3028 365.08 82.9295 364.76 82.9295 364.12C82.9295 363.544 83.2282 363.256 83.8255 363.256C83.8682 363.256 84.4762 363.309 85.6495 363.416C85.9695 362.669 86.3108 361.933 86.6735 361.208C89.4682 355.363 91.3882 352.44 92.4335 352.44C93.2228 352.44 93.7668 356.099 94.0655 363.416H94.3535C94.5028 363.416 94.5775 363.523 94.5775 363.736C94.5775 363.949 94.4175 364.131 94.0975 364.28C94.2255 367.779 94.3962 369.528 94.6095 369.528ZM87.0255 363.576C89.5215 363.576 91.1108 363.565 91.7935 363.544C91.7722 363.203 91.7508 362.605 91.7295 361.752C91.7082 360.899 91.6868 360.163 91.6655 359.544C91.6442 358.904 91.6228 358.243 91.6015 357.56C91.5162 356.088 91.3882 355.352 91.2175 355.352C90.9828 355.352 90.5028 356.045 89.7775 357.432C89.0522 358.819 88.4868 359.992 88.0815 360.952C87.5268 362.339 87.1748 363.213 87.0255 363.576ZM107.089 371.16C106.363 371.16 105.798 371 105.393 370.68C105.222 370.509 105.137 370.061 105.137 369.336C105.137 368.611 105.169 367.661 105.233 366.488C104.657 368.024 104.07 369.187 103.473 369.976C102.875 370.765 102.118 371.16 101.201 371.16C100.305 371.16 99.5368 370.765 98.8968 369.976C98.2781 369.187 97.9688 367.928 97.9688 366.2C97.9688 364.472 98.4488 362.947 99.4088 361.624C100.39 360.301 101.67 359.64 103.249 359.64C104.017 359.64 104.817 359.939 105.649 360.536C105.99 356.376 106.299 354.029 106.577 353.496C106.705 353.261 107.003 352.92 107.473 352.472C107.963 352.024 108.369 351.8 108.689 351.8C109.009 351.8 109.169 352.301 109.169 353.304C109.169 354.477 109.062 355.491 108.849 356.344C108.273 358.541 107.91 359.939 107.761 360.536C107.462 362.84 107.313 365.549 107.313 368.664C107.313 369.24 107.377 369.528 107.505 369.528C107.889 369.507 108.401 369.059 109.041 368.184C109.681 367.309 110.31 366.179 110.929 364.792C111.569 363.384 111.953 362.68 112.081 362.68C112.23 362.68 112.305 362.765 112.305 362.936C112.305 363.533 111.995 364.483 111.377 365.784C109.691 369.368 108.262 371.16 107.089 371.16ZM103.057 360.792C102.481 360.792 101.905 361.251 101.329 362.168C100.753 363.085 100.465 364.152 100.465 365.368C100.465 366.563 100.614 367.544 100.913 368.312C101.233 369.08 101.627 369.464 102.097 369.464C103.057 369.464 104.155 367.544 105.393 363.704C105.499 362.531 105.553 361.837 105.553 361.624C104.934 361.069 104.102 360.792 103.057 360.792ZM114.562 369.592C115.331 369.592 116.003 369.197 116.579 368.408C117.155 367.597 117.581 366.616 117.859 365.464C117.091 365.229 116.504 364.824 116.099 364.248C115.693 363.651 115.491 362.968 115.491 362.2C115.491 361.432 115.683 360.76 116.067 360.184C116.472 359.608 117.048 359.32 117.795 359.32C118.243 359.32 118.584 359.608 118.819 360.184C119.053 360.739 119.171 361.368 119.171 362.072C119.171 362.776 119.117 363.48 119.01 364.184C119.331 364.312 119.672 364.376 120.035 364.376C120.867 364.376 121.667 363.992 122.435 363.224C122.819 362.84 123.075 362.648 123.203 362.648C123.352 362.648 123.427 362.755 123.427 362.968C123.427 363.181 123.288 363.437 123.011 363.736C121.88 364.995 120.451 365.624 118.723 365.624C118.317 367.181 117.688 368.493 116.835 369.56C115.981 370.627 114.936 371.16 113.699 371.16C112.973 371.16 112.376 370.851 111.907 370.232C111.117 369.229 110.723 367.757 110.723 365.816C110.723 365.155 110.776 364.301 110.883 363.256C110.989 362.211 111.107 361.571 111.235 361.336C111.384 361.101 111.725 360.813 112.259 360.472C112.813 360.131 113.197 359.96 113.411 359.96C113.731 359.96 113.891 360.152 113.891 360.536C113.891 361.624 113.613 362.808 113.059 364.088C113.059 365.603 113.176 366.904 113.411 367.992C113.667 369.059 114.051 369.592 114.562 369.592ZM117.475 360.536C117.304 360.536 117.219 360.888 117.219 361.592C117.219 362.296 117.539 362.968 118.179 363.608C118.221 363.352 118.243 363.096 118.243 362.84C118.243 361.304 117.987 360.536 117.475 360.536ZM125.654 371.16C124.459 371.16 123.51 370.712 122.806 369.816C122.102 368.899 121.75 367.864 121.75 366.712C121.75 364.387 122.241 362.627 123.222 361.432C124.203 360.237 125.473 359.64 127.03 359.64C127.755 359.64 128.353 359.843 128.822 360.248C129.291 360.632 129.526 361.165 129.526 361.848C129.526 363.128 128.982 364.205 127.894 365.08C126.827 365.933 125.515 366.381 123.958 366.424C124.043 367.256 124.321 367.981 124.79 368.6C125.281 369.197 125.846 369.496 126.486 369.496C127.126 369.496 127.702 369.347 128.214 369.048C128.726 368.749 129.195 368.323 129.622 367.768C130.518 366.595 131.286 365.261 131.926 363.768C132.097 363.384 132.225 363.107 132.31 362.936C132.417 362.765 132.523 362.68 132.63 362.68C132.758 362.68 132.822 362.765 132.822 362.936C132.822 364.003 132.171 365.603 130.87 367.736C129.462 370.019 127.723 371.16 125.654 371.16ZM123.958 365.656C125.217 365.443 126.134 365.037 126.71 364.44C127.307 363.843 127.606 363.064 127.606 362.104C127.606 361.144 127.297 360.664 126.678 360.664C125.931 360.664 125.302 361.187 124.79 362.232C124.278 363.256 124.001 364.397 123.958 365.656ZM133.909 362.648L135.669 362.456C135.84 362.456 135.989 362.552 136.117 362.744C136.245 362.936 136.309 363.139 136.309 363.352C136.309 363.565 136.234 364.291 136.085 365.528C135.957 366.765 135.893 367.747 135.893 368.472C135.893 369.176 135.957 369.528 136.085 369.528C136.448 369.507 136.949 369.059 137.589 368.184C138.229 367.288 138.858 366.147 139.477 364.76C140.117 363.373 140.501 362.68 140.629 362.68C140.778 362.68 140.853 362.765 140.853 362.936C140.853 363.533 140.544 364.483 139.925 365.784C138.24 369.368 136.821 371.16 135.669 371.16C134.837 371.16 134.208 370.989 133.781 370.648C133.632 370.499 133.557 369.571 133.557 367.864C133.557 366.157 133.738 364.696 134.101 363.48C132.864 363.48 132 363.085 131.509 362.296C131.253 361.891 131.125 361.432 131.125 360.92C131.125 360.408 131.232 359.96 131.445 359.576C131.658 359.192 131.957 359 132.341 359C132.746 359 133.109 359.213 133.429 359.64C133.77 360.045 133.941 360.504 133.941 361.016C133.941 361.528 133.792 362.04 133.493 362.552C133.578 362.616 133.717 362.648 133.909 362.648ZM144.017 361.208L144.081 360.728C144.081 360.344 143.857 360.152 143.409 360.152C142.983 360.152 142.567 360.44 142.161 361.016C141.756 361.571 141.553 362.029 141.553 362.392C141.553 362.755 141.575 363.043 141.617 363.256C141.66 363.469 141.703 363.651 141.745 363.8C141.809 363.928 141.905 364.088 142.033 364.28C142.161 364.472 142.257 364.611 142.321 364.696L142.673 365.144C142.823 365.357 142.929 365.496 142.993 365.56C144.103 364.643 145.425 363.619 146.961 362.488C147.047 362.424 147.143 362.392 147.249 362.392C147.463 362.392 147.569 362.509 147.569 362.744C147.569 362.979 147.473 363.16 147.281 363.288C145.916 364.163 144.625 365.112 143.409 366.136C143.879 366.819 144.113 367.565 144.113 368.376C144.113 369.187 143.804 369.88 143.185 370.456C142.567 371.032 141.777 371.32 140.817 371.32C139.857 371.32 139.377 370.861 139.377 369.944C139.377 369.283 140.081 368.269 141.489 366.904C141.383 366.776 141.191 366.573 140.913 366.296C140.636 365.997 140.423 365.763 140.273 365.592C140.145 365.421 139.985 365.197 139.793 364.92C139.452 364.387 139.281 363.811 139.281 363.192C139.281 361.933 139.687 360.92 140.497 360.152C141.308 359.363 142.172 358.968 143.089 358.968C143.665 358.968 144.113 359.128 144.433 359.448C144.753 359.747 144.913 360.056 144.913 360.376C144.913 361.101 144.743 361.464 144.401 361.464C144.145 361.464 144.017 361.379 144.017 361.208ZM141.969 367.512C141.116 368.365 140.689 369.059 140.689 369.592C140.689 370.104 140.956 370.36 141.489 370.36C141.809 370.36 142.076 370.232 142.289 369.976C142.759 369.336 142.652 368.515 141.969 367.512ZM147.122 355.352C147.122 354.968 147.324 354.637 147.73 354.36C148.135 354.083 148.498 353.944 148.818 353.944C149.394 353.944 149.682 354.275 149.682 354.936C149.682 355.597 149.511 356.173 149.17 356.664C148.828 357.133 148.348 357.368 147.73 357.368C147.324 357.368 147.122 356.696 147.122 355.352ZM148.049 371.16C147.218 371.16 146.588 370.989 146.162 370.648C146.012 370.499 145.938 369.965 145.938 369.048C145.938 368.131 146.002 366.605 146.13 364.472C146.279 362.317 146.407 361.155 146.514 360.984C146.62 360.813 146.951 360.493 147.506 360.024C148.06 359.555 148.487 359.32 148.786 359.32C149.106 359.32 149.266 359.725 149.266 360.536C149.266 360.749 149.202 361.165 149.074 361.784C148.967 362.403 148.839 362.851 148.69 363.128C148.412 363.832 148.274 365.677 148.274 368.664C148.274 369.24 148.338 369.528 148.466 369.528C148.828 369.507 149.33 369.059 149.97 368.184C150.61 367.288 151.239 366.147 151.858 364.76C152.498 363.373 152.882 362.68 153.01 362.68C153.159 362.68 153.234 362.765 153.234 362.936C153.234 363.533 152.924 364.483 152.306 365.784C150.62 369.368 149.202 371.16 148.049 371.16ZM158.699 365.784C157.014 369.368 155.585 371.16 154.411 371.16C153.259 371.16 152.577 371.021 152.363 370.744C152.171 370.467 152.075 369.549 152.075 367.992C152.075 366.435 152.225 364.184 152.523 361.24C151.457 361.027 150.891 360.589 150.827 359.928C150.827 359.587 151.051 359.416 151.499 359.416C151.947 359.416 152.342 359.501 152.683 359.672C152.875 358.136 153.099 356.579 153.355 355C153.419 354.595 153.622 354.211 153.963 353.848C154.305 353.485 154.635 353.304 154.955 353.304C155.233 353.304 155.371 353.741 155.371 354.616C155.371 355.021 155.222 356.888 154.923 360.216C155.499 360.109 156.129 359.896 156.811 359.576C157.515 359.256 157.931 359.096 158.059 359.096C158.443 359.096 158.635 359.213 158.635 359.448C158.657 359.661 158.262 359.96 157.451 360.344C156.641 360.707 155.766 360.984 154.827 361.176C154.571 364.291 154.443 366.648 154.443 368.248C154.443 369.101 154.571 369.528 154.827 369.528C155.211 369.507 155.723 369.059 156.363 368.184C157.003 367.309 157.633 366.179 158.251 364.792C158.891 363.384 159.275 362.68 159.403 362.68C159.553 362.68 159.627 362.765 159.627 362.936C159.627 363.533 159.318 364.483 158.699 365.784ZM157.969 368.216L158.161 364.632C158.161 362.349 158.267 361.101 158.481 360.888C158.694 360.675 159.067 360.365 159.601 359.96C160.155 359.533 160.55 359.32 160.785 359.32C161.041 359.32 161.201 359.363 161.265 359.448C161.329 359.533 161.361 359.704 161.361 359.96C161.361 360.877 161.158 361.805 160.753 362.744C160.433 364.707 160.273 366.317 160.273 367.576C160.273 368.835 160.422 369.464 160.721 369.464C161.233 369.464 161.819 369.016 162.481 368.12C163.163 367.203 163.857 365.859 164.561 364.088C164.582 363.619 164.603 363.128 164.625 362.616C164.646 362.083 164.667 361.699 164.689 361.464C164.71 361.208 164.721 361.027 164.721 360.92C164.742 360.813 165.041 360.525 165.617 360.056C166.193 359.565 166.63 359.32 166.929 359.32C167.249 359.32 167.409 359.725 167.409 360.536C167.409 360.749 167.345 361.165 167.217 361.784C167.11 362.403 166.982 362.851 166.833 363.128C166.662 364.643 166.545 365.965 166.481 367.096C168.571 364.451 169.681 363.053 169.809 362.904C169.958 362.755 170.086 362.68 170.193 362.68C170.406 362.68 170.513 362.787 170.513 363C170.513 363.128 170.47 363.267 170.385 363.416C169.702 364.419 168.358 366.179 166.353 368.696C166.225 371.235 166.139 372.963 166.097 373.88C165.99 376.589 165.606 378.488 164.945 379.576C164.305 380.685 163.153 381.24 161.489 381.24C160.763 381.24 160.081 381.016 159.441 380.568C158.822 380.141 158.513 379.384 158.513 378.296C158.513 377.229 158.918 376.131 159.729 375C160.561 373.869 162.065 372.131 164.241 369.784L164.433 366.296C163.707 367.896 162.993 369.112 162.289 369.944C161.585 370.755 160.806 371.16 159.953 371.16C159.099 371.16 158.555 370.947 158.321 370.52C158.086 370.093 157.969 369.325 157.969 368.216ZM164.145 371.288C161.713 373.912 160.497 376.013 160.497 377.592C160.497 378.317 160.625 378.915 160.881 379.384C161.137 379.853 161.489 380.088 161.937 380.088C162.619 380.088 163.099 379.715 163.377 378.968C163.654 378.221 163.857 376.707 163.985 374.424L164.145 371.288ZM178.187 369.272L178.219 370.264C178.219 370.861 178.049 371.16 177.707 371.16C177.195 371.16 176.705 371.096 176.235 370.968C175.766 370.819 175.531 370.627 175.531 370.392C175.531 370.136 175.585 369.293 175.691 367.864C175.819 366.413 175.883 365.325 175.883 364.6V362.712C175.883 361.688 175.99 361.069 176.203 360.856C176.417 360.643 176.79 360.333 177.323 359.928C177.878 359.523 178.273 359.32 178.507 359.32C178.763 359.32 178.923 359.363 178.987 359.448C179.051 359.533 179.083 359.693 179.083 359.928C179.083 361.059 178.87 362.125 178.443 363.128C178.337 364.344 178.283 365.187 178.283 365.656C179.414 363.544 180.203 362.157 180.651 361.496C181.441 360.259 182.155 359.64 182.795 359.64C183.201 359.64 183.574 359.8 183.915 360.12C184.278 360.44 184.459 360.835 184.459 361.304C184.459 361.773 184.449 362.221 184.427 362.648C184.427 363.053 184.417 363.373 184.395 363.608C184.374 363.843 184.363 363.992 184.363 364.056C184.449 363.885 184.811 363.405 185.451 362.616C186.091 361.827 186.518 361.315 186.731 361.08C186.966 360.845 187.211 360.611 187.467 360.376C187.958 359.885 188.395 359.64 188.779 359.64C189.185 359.64 189.558 359.789 189.899 360.088C190.262 360.387 190.443 360.76 190.443 361.208C190.443 362.147 190.337 363.533 190.123 365.368C189.931 367.181 189.835 368.333 189.835 368.824C189.835 369.293 189.899 369.528 190.027 369.528C190.39 369.507 190.891 369.059 191.531 368.184C192.171 367.288 192.801 366.147 193.419 364.76C194.059 363.373 194.443 362.68 194.571 362.68C194.721 362.68 194.795 362.765 194.795 362.936C194.795 363.533 194.486 364.483 193.867 365.784C192.182 369.368 190.763 371.16 189.611 371.16C188.886 371.16 188.31 370.989 187.883 370.648C187.734 370.499 187.659 370.115 187.659 369.496C187.659 368.856 187.713 367.832 187.819 366.424C187.947 364.995 188.011 363.928 188.011 363.224C188.011 362.52 187.894 362.168 187.659 362.168C187.382 362.168 186.774 362.637 185.835 363.576C184.918 364.515 184.427 365.176 184.363 365.56C184.235 366.285 184.171 367.853 184.171 370.264C184.171 370.861 184.011 371.16 183.691 371.16C183.201 371.16 182.731 371.096 182.283 370.968C181.857 370.819 181.643 370.627 181.643 370.392C181.643 370.136 181.707 369.08 181.835 367.224C181.963 365.368 182.027 364.067 182.027 363.32C182.027 362.552 181.899 362.168 181.643 362.168C181.409 362.168 180.822 362.904 179.883 364.376C178.945 365.827 178.422 366.84 178.315 367.416C178.23 367.992 178.187 368.611 178.187 369.272ZM201.867 371.16C201.035 371.16 200.406 370.989 199.979 370.648C199.83 370.499 199.755 370.125 199.755 369.528C199.755 368.909 199.776 368.088 199.819 367.064C199.264 368.451 198.71 369.485 198.155 370.168C197.622 370.829 196.928 371.16 196.075 371.16C195.222 371.16 194.475 370.765 193.835 369.976C193.195 369.165 192.875 367.907 192.875 366.2C192.875 364.472 193.355 362.947 194.315 361.624C195.296 360.301 196.576 359.64 198.155 359.64C198.838 359.64 199.606 360.088 200.459 360.984C200.63 360.749 200.928 360.472 201.355 360.152C201.803 359.811 202.176 359.64 202.475 359.64C202.795 359.64 202.955 360.045 202.955 360.856C202.955 361.069 202.891 361.485 202.763 362.104C202.656 362.723 202.528 363.171 202.379 363.448C202.187 363.939 202.091 365.677 202.091 368.664C202.091 369.24 202.155 369.528 202.283 369.528C202.646 369.507 203.147 369.059 203.787 368.184C204.427 367.288 205.056 366.147 205.675 364.76C206.315 363.373 206.699 362.68 206.827 362.68C206.976 362.68 207.051 362.765 207.051 362.936C207.051 363.533 206.742 364.483 206.123 365.784C204.438 369.368 203.019 371.16 201.867 371.16ZM197.963 360.92C197.366 360.92 196.726 361.368 196.043 362.264C195.382 363.139 195.051 364.173 195.051 365.368C195.051 366.563 195.222 367.544 195.563 368.312C195.926 369.08 196.395 369.464 196.971 369.464C197.675 369.464 198.71 367.704 200.075 364.184C200.096 364.013 200.118 363.725 200.139 363.32C200.182 362.893 200.214 362.573 200.235 362.36C200.043 362.019 199.702 361.699 199.211 361.4C198.742 361.08 198.326 360.92 197.963 360.92ZM215.429 372.12L216.293 372.024C216.464 372.024 216.549 372.109 216.549 372.28C216.549 372.579 216.346 372.803 215.941 372.952C215.536 373.101 215.077 373.176 214.565 373.176C213.605 373.176 212.794 372.792 212.133 372.024C211.493 371.256 210.597 369.837 209.445 367.768C209.168 367.32 209.029 366.979 209.029 366.744C209.029 366.424 209.477 366.051 210.373 365.624C211.824 364.877 212.549 363.939 212.549 362.808C212.549 362.488 212.432 362.221 212.197 362.008C211.984 361.773 211.696 361.656 211.333 361.656C210.821 361.656 210.213 362.264 209.509 363.48C208.805 364.675 208.325 365.805 208.069 366.872C207.834 367.917 207.717 369.048 207.717 370.264C207.717 370.861 207.546 371.16 207.205 371.16C206.714 371.16 206.245 371.096 205.797 370.968C205.349 370.819 205.125 370.637 205.125 370.424C205.125 370.189 205.21 369.176 205.381 367.384C205.552 365.571 205.648 364.269 205.669 363.48C205.754 359.128 206.01 355.8 206.437 353.496C206.501 353.304 206.789 352.973 207.301 352.504C207.834 352.035 208.261 351.8 208.581 351.8C208.901 351.8 209.05 352.205 209.029 353.016C209.029 353.805 208.858 355.512 208.517 358.136C208.176 360.76 207.962 363.16 207.877 365.336C208.261 363.971 208.869 362.68 209.701 361.464C210.554 360.248 211.408 359.64 212.261 359.64C213.712 359.64 214.437 360.344 214.437 361.752C214.437 362.691 214.16 363.544 213.605 364.312C213.05 365.059 212.304 365.667 211.365 366.136C211.173 366.221 211.077 366.317 211.077 366.424C211.077 366.531 211.109 366.637 211.173 366.744C212.517 369.112 213.658 370.776 214.597 371.736C214.853 371.992 215.13 372.12 215.429 372.12ZM219.998 371.16C218.803 371.16 217.854 370.712 217.15 369.816C216.446 368.899 216.094 367.864 216.094 366.712C216.094 364.387 216.584 362.627 217.566 361.432C218.547 360.237 219.816 359.64 221.374 359.64C222.099 359.64 222.696 359.843 223.166 360.248C223.635 360.632 223.87 361.165 223.87 361.848C223.87 363.128 223.326 364.205 222.238 365.08C221.171 365.933 219.859 366.381 218.302 366.424C218.387 367.256 218.664 367.981 219.134 368.6C219.624 369.197 220.19 369.496 220.83 369.496C221.47 369.496 222.046 369.347 222.558 369.048C223.07 368.749 223.539 368.323 223.966 367.768C224.862 366.595 225.63 365.261 226.27 363.768C226.44 363.384 226.568 363.107 226.654 362.936C226.76 362.765 226.867 362.68 226.974 362.68C227.102 362.68 227.166 362.765 227.166 362.936C227.166 364.003 226.515 365.603 225.214 367.736C223.806 370.019 222.067 371.16 219.998 371.16ZM218.302 365.656C219.56 365.443 220.478 365.037 221.054 364.44C221.651 363.843 221.95 363.064 221.95 362.104C221.95 361.144 221.64 360.664 221.022 360.664C220.275 360.664 219.646 361.187 219.134 362.232C218.622 363.256 218.344 364.397 218.302 365.656ZM230.205 361.208L230.269 360.728C230.269 360.344 230.045 360.152 229.597 360.152C229.17 360.152 228.754 360.44 228.349 361.016C227.943 361.571 227.741 362.029 227.741 362.392C227.741 362.755 227.762 363.043 227.805 363.256C227.847 363.469 227.89 363.651 227.933 363.8C227.997 363.928 228.093 364.088 228.221 364.28C228.349 364.472 228.445 364.611 228.509 364.696L228.861 365.144C229.01 365.357 229.117 365.496 229.181 365.56C230.29 364.643 231.613 363.619 233.149 362.488C233.234 362.424 233.33 362.392 233.437 362.392C233.65 362.392 233.757 362.509 233.757 362.744C233.757 362.979 233.661 363.16 233.469 363.288C232.103 364.163 230.813 365.112 229.597 366.136C230.066 366.819 230.301 367.565 230.301 368.376C230.301 369.187 229.991 369.88 229.373 370.456C228.754 371.032 227.965 371.32 227.005 371.32C226.045 371.32 225.565 370.861 225.565 369.944C225.565 369.283 226.269 368.269 227.677 366.904C227.57 366.776 227.378 366.573 227.101 366.296C226.823 365.997 226.61 365.763 226.461 365.592C226.333 365.421 226.173 365.197 225.981 364.92C225.639 364.387 225.469 363.811 225.469 363.192C225.469 361.933 225.874 360.92 226.685 360.152C227.495 359.363 228.359 358.968 229.277 358.968C229.853 358.968 230.301 359.128 230.621 359.448C230.941 359.747 231.101 360.056 231.101 360.376C231.101 361.101 230.93 361.464 230.589 361.464C230.333 361.464 230.205 361.379 230.205 361.208ZM228.157 367.512C227.303 368.365 226.877 369.059 226.877 369.592C226.877 370.104 227.143 370.36 227.677 370.36C227.997 370.36 228.263 370.232 228.477 369.976C228.946 369.336 228.839 368.515 228.157 367.512ZM241.156 369.272L241.188 370.264C241.188 370.861 241.017 371.16 240.676 371.16C240.164 371.16 239.673 371.096 239.204 370.968C238.735 370.819 238.5 370.627 238.5 370.392C238.5 370.136 238.553 369.293 238.66 367.864C238.788 366.413 238.852 365.325 238.852 364.6V362.712C238.852 361.688 238.959 361.069 239.172 360.856C239.385 360.643 239.759 360.333 240.292 359.928C240.847 359.523 241.241 359.32 241.476 359.32C241.732 359.32 241.892 359.363 241.956 359.448C242.02 359.533 242.052 359.693 242.052 359.928C242.052 361.059 241.839 362.125 241.412 363.128C241.305 364.344 241.252 365.187 241.252 365.656C242.383 363.544 243.172 362.157 243.62 361.496C244.409 360.259 245.124 359.64 245.764 359.64C246.169 359.64 246.543 359.8 246.884 360.12C247.247 360.44 247.428 360.835 247.428 361.304C247.428 361.773 247.417 362.221 247.396 362.648C247.396 363.053 247.385 363.373 247.364 363.608C247.343 363.843 247.332 363.992 247.332 364.056C247.417 363.885 247.78 363.405 248.42 362.616C249.06 361.827 249.487 361.315 249.7 361.08C249.935 360.845 250.18 360.611 250.436 360.376C250.927 359.885 251.364 359.64 251.748 359.64C252.153 359.64 252.527 359.789 252.868 360.088C253.231 360.387 253.412 360.76 253.412 361.208C253.412 362.147 253.305 363.533 253.092 365.368C252.9 367.181 252.804 368.333 252.804 368.824C252.804 369.293 252.868 369.528 252.996 369.528C253.359 369.507 253.86 369.059 254.5 368.184C255.14 367.288 255.769 366.147 256.388 364.76C257.028 363.373 257.412 362.68 257.54 362.68C257.689 362.68 257.764 362.765 257.764 362.936C257.764 363.533 257.455 364.483 256.836 365.784C255.151 369.368 253.732 371.16 252.58 371.16C251.855 371.16 251.279 370.989 250.852 370.648C250.703 370.499 250.628 370.115 250.628 369.496C250.628 368.856 250.681 367.832 250.788 366.424C250.916 364.995 250.98 363.928 250.98 363.224C250.98 362.52 250.863 362.168 250.628 362.168C250.351 362.168 249.743 362.637 248.804 363.576C247.887 364.515 247.396 365.176 247.332 365.56C247.204 366.285 247.14 367.853 247.14 370.264C247.14 370.861 246.98 371.16 246.66 371.16C246.169 371.16 245.7 371.096 245.252 370.968C244.825 370.819 244.612 370.627 244.612 370.392C244.612 370.136 244.676 369.08 244.804 367.224C244.932 365.368 244.996 364.067 244.996 363.32C244.996 362.552 244.868 362.168 244.612 362.168C244.377 362.168 243.791 362.904 242.852 364.376C241.913 365.827 241.391 366.84 241.284 367.416C241.199 367.992 241.156 368.611 241.156 369.272ZM259.748 371.16C258.553 371.16 257.604 370.712 256.9 369.816C256.196 368.899 255.844 367.864 255.844 366.712C255.844 364.387 256.334 362.627 257.316 361.432C258.297 360.237 259.566 359.64 261.124 359.64C261.849 359.64 262.446 359.843 262.916 360.248C263.385 360.632 263.62 361.165 263.62 361.848C263.62 363.128 263.076 364.205 261.988 365.08C260.921 365.933 259.609 366.381 258.052 366.424C258.137 367.256 258.414 367.981 258.884 368.6C259.374 369.197 259.94 369.496 260.58 369.496C261.22 369.496 261.796 369.347 262.308 369.048C262.82 368.749 263.289 368.323 263.716 367.768C264.612 366.595 265.38 365.261 266.02 363.768C266.19 363.384 266.318 363.107 266.404 362.936C266.51 362.765 266.617 362.68 266.724 362.68C266.852 362.68 266.916 362.765 266.916 362.936C266.916 364.003 266.265 365.603 264.964 367.736C263.556 370.019 261.817 371.16 259.748 371.16ZM258.052 365.656C259.31 365.443 260.228 365.037 260.804 364.44C261.401 363.843 261.7 363.064 261.7 362.104C261.7 361.144 261.39 360.664 260.772 360.664C260.025 360.664 259.396 361.187 258.884 362.232C258.372 363.256 258.094 364.397 258.052 365.656ZM284.906 364.376C285.802 364.376 286.634 363.992 287.402 363.224C287.786 362.84 288.042 362.648 288.17 362.648C288.319 362.648 288.394 362.755 288.394 362.968C288.394 363.181 288.255 363.437 287.978 363.736C286.847 364.995 285.428 365.624 283.722 365.624C283.38 367.203 282.847 368.525 282.122 369.592C281.396 370.637 280.479 371.16 279.37 371.16C278.26 371.16 277.46 370.509 276.97 369.208C276.095 370.509 275.188 371.16 274.25 371.16C272.479 371.16 271.594 369.453 271.594 366.04C271.594 363.672 271.828 362.061 272.298 361.208C272.383 361.059 272.703 360.813 273.258 360.472C273.812 360.131 274.196 359.96 274.41 359.96C274.73 359.96 274.89 360.152 274.89 360.536C274.847 361.539 274.548 362.723 273.994 364.088C273.866 364.344 273.802 364.963 273.802 365.944C273.802 366.904 273.908 367.757 274.122 368.504C274.356 369.229 274.687 369.592 275.114 369.592C275.54 369.592 276.063 369.08 276.682 368.056C276.575 367.523 276.522 366.957 276.522 366.36C276.522 365.741 276.586 365.091 276.714 364.408C276.842 363.704 277.098 363 277.482 362.296C277.866 361.592 278.324 361.24 278.858 361.24C279.028 361.24 279.146 361.293 279.21 361.4C279.295 361.507 279.338 361.763 279.338 362.168C279.338 363.256 279.05 364.611 278.474 366.232C278.559 367.171 278.772 367.971 279.114 368.632C279.476 369.272 279.871 369.592 280.298 369.592C280.916 369.592 281.439 369.197 281.866 368.408C282.292 367.597 282.623 366.616 282.858 365.464C282.068 365.251 281.46 364.845 281.034 364.248C280.607 363.651 280.394 362.968 280.394 362.2C280.394 361.411 280.575 360.739 280.938 360.184C281.322 359.608 281.876 359.32 282.602 359.32C283.583 359.32 284.074 360.376 284.074 362.488C284.074 363.043 284.042 363.619 283.978 364.216C284.298 364.323 284.607 364.376 284.906 364.376ZM282.378 360.536C282.186 360.536 282.09 360.899 282.09 361.624C282.09 362.349 282.42 363.021 283.082 363.64C283.103 363.533 283.114 363.373 283.114 363.16C283.114 361.411 282.868 360.536 282.378 360.536ZM287.653 355.352C287.653 354.968 287.855 354.637 288.261 354.36C288.666 354.083 289.029 353.944 289.349 353.944C289.925 353.944 290.213 354.275 290.213 354.936C290.213 355.597 290.042 356.173 289.701 356.664C289.359 357.133 288.879 357.368 288.261 357.368C287.855 357.368 287.653 356.696 287.653 355.352ZM288.581 371.16C287.749 371.16 287.119 370.989 286.693 370.648C286.543 370.499 286.469 369.965 286.469 369.048C286.469 368.131 286.533 366.605 286.661 364.472C286.81 362.317 286.938 361.155 287.045 360.984C287.151 360.813 287.482 360.493 288.037 360.024C288.591 359.555 289.018 359.32 289.317 359.32C289.637 359.32 289.797 359.725 289.797 360.536C289.797 360.749 289.733 361.165 289.605 361.784C289.498 362.403 289.37 362.851 289.221 363.128C288.943 363.832 288.805 365.677 288.805 368.664C288.805 369.24 288.869 369.528 288.997 369.528C289.359 369.507 289.861 369.059 290.501 368.184C291.141 367.288 291.77 366.147 292.389 364.76C293.029 363.373 293.413 362.68 293.541 362.68C293.69 362.68 293.765 362.765 293.765 362.936C293.765 363.533 293.455 364.483 292.837 365.784C291.151 369.368 289.733 371.16 288.581 371.16ZM296.799 361.208L296.863 360.728C296.863 360.344 296.639 360.152 296.191 360.152C295.764 360.152 295.348 360.44 294.943 361.016C294.537 361.571 294.335 362.029 294.335 362.392C294.335 362.755 294.356 363.043 294.399 363.256C294.441 363.469 294.484 363.651 294.527 363.8C294.591 363.928 294.687 364.088 294.815 364.28C294.943 364.472 295.039 364.611 295.103 364.696L295.455 365.144C295.604 365.357 295.711 365.496 295.775 365.56C296.884 364.643 298.207 363.619 299.743 362.488C299.828 362.424 299.924 362.392 300.031 362.392C300.244 362.392 300.351 362.509 300.351 362.744C300.351 362.979 300.255 363.16 300.062 363.288C298.697 364.163 297.407 365.112 296.191 366.136C296.66 366.819 296.895 367.565 296.895 368.376C296.895 369.187 296.585 369.88 295.967 370.456C295.348 371.032 294.559 371.32 293.599 371.32C292.639 371.32 292.159 370.861 292.159 369.944C292.159 369.283 292.863 368.269 294.271 366.904C294.164 366.776 293.972 366.573 293.695 366.296C293.417 365.997 293.204 365.763 293.055 365.592C292.927 365.421 292.767 365.197 292.575 364.92C292.233 364.387 292.062 363.811 292.062 363.192C292.062 361.933 292.468 360.92 293.279 360.152C294.089 359.363 294.953 358.968 295.871 358.968C296.447 358.968 296.895 359.128 297.215 359.448C297.535 359.747 297.695 360.056 297.695 360.376C297.695 361.101 297.524 361.464 297.183 361.464C296.927 361.464 296.799 361.379 296.799 361.208ZM294.751 367.512C293.897 368.365 293.471 369.059 293.471 369.592C293.471 370.104 293.737 370.36 294.271 370.36C294.591 370.36 294.857 370.232 295.071 369.976C295.54 369.336 295.433 368.515 294.751 367.512ZM302.623 371.16C301.428 371.16 300.479 370.712 299.775 369.816C299.071 368.899 298.719 367.864 298.719 366.712C298.719 364.387 299.209 362.627 300.191 361.432C301.172 360.237 302.441 359.64 303.999 359.64C304.724 359.64 305.321 359.843 305.791 360.248C306.26 360.632 306.495 361.165 306.495 361.848C306.495 363.128 305.951 364.205 304.863 365.08C303.796 365.933 302.484 366.381 300.927 366.424C301.012 367.256 301.289 367.981 301.759 368.6C302.249 369.197 302.815 369.496 303.455 369.496C304.095 369.496 304.671 369.347 305.183 369.048C305.695 368.749 306.164 368.323 306.591 367.768C307.487 366.595 308.255 365.261 308.895 363.768C309.065 363.384 309.193 363.107 309.279 362.936C309.385 362.765 309.492 362.68 309.599 362.68C309.727 362.68 309.791 362.765 309.791 362.936C309.791 364.003 309.14 365.603 307.839 367.736C306.431 370.019 304.692 371.16 302.623 371.16ZM300.927 365.656C302.185 365.443 303.103 365.037 303.679 364.44C304.276 363.843 304.575 363.064 304.575 362.104C304.575 361.144 304.265 360.664 303.647 360.664C302.9 360.664 302.271 361.187 301.759 362.232C301.247 363.256 300.969 364.397 300.927 365.656ZM315.973 364.856C315.973 364.131 316.389 363.395 317.221 362.648C318.074 361.901 318.853 361.528 319.557 361.528C320.261 361.528 321.157 361.816 322.245 362.392C323.354 362.968 324.133 363.256 324.581 363.256C325.029 363.256 325.423 363.128 325.765 362.872C326.127 362.616 326.405 362.371 326.597 362.136C326.81 361.88 327.002 361.752 327.173 361.752C327.343 361.752 327.429 361.827 327.429 361.976C327.429 362.893 327.066 363.725 326.341 364.472C325.615 365.219 324.837 365.592 324.005 365.592C323.173 365.592 322.266 365.208 321.285 364.44C320.303 363.672 319.589 363.288 319.141 363.288C318.693 363.288 318.17 363.619 317.573 364.28C316.975 364.92 316.549 365.24 316.293 365.24C316.079 365.24 315.973 365.112 315.973 364.856Z" fill="white"/>
</svg>
