<svg id="Layer_1" data-name="Layer 1" xmlns="http://www.w3.org/2000/svg" viewBox="0 0 344.5 268.3"><defs><style>.cls-1{fill:#fff;}.cls-2,.cls-3,.cls-4,.cls-5{isolation:isolate;}.cls-3,.cls-4,.cls-5{font-size:17.24px;font-family:ArialMT, Arial;}.cls-3,.cls-4,.cls-5,.cls-6{fill:#231f20;}.cls-3{letter-spacing:0.41em;}.cls-4{letter-spacing:0.39em;}.cls-5{letter-spacing:0.28em;}</style></defs><rect class="cls-1" width="344.5" height="268.3"/><g class="cls-2"><text class="cls-3" transform="translate(93.66 221.34)">Ken</text><text class="cls-4" transform="translate(145.33 221.34)"> </text><text class="cls-5" transform="translate(156.81 221.34)">T</text><text class="cls-3" transform="translate(172.43 221.34)">auchi</text></g><path class="cls-6" d="M215.5,166.9c-7.8-9.9-15.6-19-23.3-28.7s-15.5-19.5-23.3-29.4l36.6-36.6H220V58.4H181.3V72.2h6.5l-37.4,35.6-2.6,2.2V72.3h10.7V58.5H119.8V72.3h13.4V180.7h14.5v-.1h.1V127.5l11.4-9.5c6.6,8.4,13,16.7,19.5,24.9s12.6,15.7,19.2,24H181.2v13.8h39V166.9Z"/><polygon class="cls-6" points="95.7 95.9 78.1 113.6 78.1 113.5 68.3 123.3 68.3 123.3 68.3 123.3 78.1 133.1 78.1 133.1 95.7 150.7 105.5 141 87.8 123.3 105.5 105.7 95.7 95.9"/><polygon class="cls-6" points="271.4 123.3 261.6 113.5 261.6 113.6 244 95.9 234.2 105.7 251.9 123.3 234.2 141 244 150.7 261.6 133.1 261.6 133.1 271.4 123.3"/></svg>